<svg xmlns="http://www.w3.org/2000/svg" viewBox="0 0 40 40"><circle cx="20" cy="20" r="14.5" fill="#fff"/><g transform="translate(-.229 -.229)"><linearGradient id="a" gradientUnits="userSpaceOnUse" x1="-816.985" y1="494.192" x2="-816.985" y2="493.192" gradientTransform="matrix(7.742 0 0 -7.742 6345.324 3842.394)"><stop offset="0" stop-color="#8144b8"/><stop offset=".537" stop-color="#dd2d79"/><stop offset="1" stop-color="#fcc56c"/></linearGradient><circle cx="20.2" cy="20.2" r="3.9" fill="url(#a)"/><linearGradient id="b" gradientUnits="userSpaceOnUse" x1="-914.796" y1="548.254" x2="-914.796" y2="547.254" gradientTransform="matrix(40 0 0 -40 36612.07 21930.389)"><stop offset="0" stop-color="#8144b8"/><stop offset=".537" stop-color="#dd2d79"/><stop offset="1" stop-color="#fcc56c"/></linearGradient><path d="M20.2.2c-11 0-20 9-20 20s9 20 20 20 20-9 20-20-8.9-20-20-20zM31.8 25c0 1-.2 1.9-.5 2.8-.6 1.5-1.8 2.8-3.4 3.4-.9.3-1.9.5-2.9.5-1.2.1-1.6.1-4.8.1s-3.5 0-4.8-.1c-1 0-1.9-.2-2.8-.5-1.5-.6-2.8-1.8-3.4-3.4-.2-.9-.4-1.8-.5-2.8-.1-1.2-.1-1.6-.1-4.8s0-3.5.1-4.8c0-1 .2-1.9.5-2.8.6-1.5 1.8-2.8 3.4-3.4.9-.3 1.9-.5 2.8-.5 1.2-.1 1.6-.1 4.8-.1s3.5 0 4.8.1c1 0 1.9.2 2.8.5 1.5.6 2.8 1.8 3.4 3.4.3.9.5 1.9.5 2.8.1 1.2.1 1.6.1 4.8V25z" fill-rule="evenodd" clip-rule="evenodd" fill="url(#b)"/><linearGradient id="c" gradientUnits="userSpaceOnUse" x1="-888.886" y1="534.042" x2="-888.886" y2="533.042" gradientTransform="matrix(19.014 0 0 -19.09 16921.516 10205.587)"><stop offset="0" stop-color="#8144b8"/><stop offset=".537" stop-color="#dd2d79"/><stop offset="1" stop-color="#fcc56c"/></linearGradient><path d="M29.3 13.4c-.4-1-1.2-1.8-2.2-2.2-.7-.2-1.4-.4-2.1-.4-1.2-.1-1.6-.1-4.7-.1s-3.5 0-4.7.1c-.7 0-1.5.1-2.2.4-1 .4-1.8 1.2-2.2 2.2-.3.7-.4 1.4-.4 2.2-.1 1.2-.1 1.6-.1 4.7s0 3.5.1 4.7c0 .7.1 1.5.4 2.2.4 1 1.2 1.8 2.2 2.2.7.3 1.4.4 2.2.4 1.2.1 1.6.1 4.7.1s3.5 0 4.7-.1c.7 0 1.5-.1 2.2-.4 1-.4 1.8-1.2 2.2-2.2.2-.7.3-1.5.3-2.2.1-1.2.1-1.6.1-4.7s0-3.5-.1-4.7c0-.8-.2-1.5-.4-2.2zm-9.1 12.8c-3.3 0-6-2.7-6-6s2.7-6 6-6 6 2.7 6 6-2.7 6-6 6zm6.2-10.8c0-.3.3-.6.6-.6s.6.3.6.6-.3.6-.6.6-.6-.3-.6-.6z" fill-rule="evenodd" clip-rule="evenodd" fill="url(#c)"/></g></svg>