<svg xmlns="http://www.w3.org/2000/svg" viewBox="0 0 40 40"><defs><style>.cls-1{fill:#25f4ee}.cls-2{fill:#fe2c55}</style></defs><g id="レイヤー_2" data-name="レイヤー 2"><g id="レイヤー_1-2" data-name="レイヤー 1"><circle cx="20" cy="20" r="20"/><path class="cls-1" d="M17.8 17.63v-.91a7.11 7.11 0 00-.92-.06A6.83 6.83 0 0013 29.09a6.82 6.82 0 014.8-11.46z"/><path class="cls-1" d="M18 27.58a3.16 3.16 0 003.13-3V9.72h2.67a4.91 4.91 0 01-.09-.94H20v14.83a3.12 3.12 0 01-3.11 3 3.05 3.05 0 01-1.45-.36A3.14 3.14 0 0018 27.58zm10.88-12.81v-.88a5.13 5.13 0 01-2.82-.83 5.3 5.3 0 002.82 1.71z"/><path class="cls-2" d="M26.06 13.06a5.17 5.17 0 01-1.27-3.39h-1a5.22 5.22 0 002.27 3.39zm-9.18 7.28a3.13 3.13 0 00-1.45 5.92 3.1 3.1 0 013.45-4.8v-3.79a7 7 0 00-.88-.07h-.18v2.87a2.63 2.63 0 00-.94-.13z"/><path class="cls-2" d="M28.88 14.72v2.87a8.89 8.89 0 01-5.17-1.68v7.58A6.83 6.83 0 0113 29.09a6.83 6.83 0 0011.83-4.65v-7.55A8.9 8.9 0 0030 18.55v-3.71a4.83 4.83 0 01-1.12-.12z"/><path d="M23.71 23.49V16a8.88 8.88 0 005.17 1.66v-2.94a5.22 5.22 0 01-2.82-1.66 5.2 5.2 0 01-2.26-3.39h-2.72v14.88a3.11 3.11 0 01-5.64 1.71 3.11 3.11 0 012.37-5.74V17.6A6.83 6.83 0 0013 29.09a6.83 6.83 0 0010.75-5.6z" fill="#fff"/></g></g></svg>